<?xml version="1.0" ?><svg style="enable-background:new 0 0 48 48;" version="1.1" viewBox="0 0 48 48" xml:space="preserve" xmlns="http://www.w3.org/2000/svg" xmlns:xlink="http://www.w3.org/1999/xlink"><g id="Icons"><g id="Icons_25_"><path d="M35.47188,10.90125c-2.1-2.1-5.51-2.11-7.61-0.01l-6.6601,6.66c-0.87,0.87-1.37,1.97-1.5199,3.11    c-0.08,0.57-0.07,1.16,0.05,1.72c0.0299,0.15,0.07,0.3,0.11,0.45c0.11,0.39,0.27,0.77,0.47,1.13l-0.01,0.01    c0.07,0.13,0.1499,0.25,0.23,0.37c0.19,0.29,0.4199,0.56,0.68,0.82c1.07,1.08,2.4899,1.6,3.92,1.55l-0.45-1.57    c-0.81-0.09-1.7-0.46-2.32-1.06c-0.01-0.01-0.0301-0.03-0.04-0.04c-0.14-0.14-0.26-0.28-0.3701-0.43    c-0.12-0.16-0.2199-0.33-0.31-0.5c-0.1699-0.33-0.2899-0.67-0.3499-1.02c-0.0301-0.17-0.05-0.34-0.06-0.51    c-0.04-0.56,0.0399-1.13,0.26-1.65c0.18-0.46,0.4599-0.89,0.82-1.26l6.67-6.66c1.4799-1.48,3.89-1.48,5.37,0    c1.4799,1.48,1.4799,3.89,0,5.37l-5.6501,5.66l0.02,0.0372c-0.0093-0.0128-0.0155-0.0266-0.0249-0.0394l0.7825,1.4532    c-0.0043-0.0117-0.011-0.0223-0.0154-0.0341l0.0179,0.0331l5.9899-5.99C37.57188,16.40125,37.56188,12.99125,35.47188,10.90125z" style="fill:#4AA0EC;"/><path d="M27.69188,24.04125c-0.22-0.43-0.53-0.84-0.9-1.2c-1.07-1.07-2.5-1.61-3.91-1.56l0.53,1.59    c0.82,0.09,1.63,0.45,2.27,1.09c0.28,0.28,0.5,0.59,0.68,0.94c0.25,0.47,0.39,0.99,0.41,1.53c0.03,0.56-0.05,1.15-0.28,1.67    c-0.18,0.45-0.45,0.86-0.81,1.22l-6.6701,6.67c-1.4799,1.48-3.8799,1.48-5.3599,0c-1.48-1.48-1.48-3.89,0-5.37l5.66-5.66    c-0.34-0.45-0.6-0.95-0.78-1.46l-6,6c-2.1,2.1-2.1,5.51,0,7.61c2.1,2.09,5.5,2.09,7.6,0l6.66-6.67c0.86-0.86,1.37-1.93,1.52-3.06    c0.08-0.58,0.07-1.17-0.04-1.75C28.16188,25.08125,27.98188,24.54125,27.69188,24.04125z" style="fill:#4AA0EC;"/></g></g></svg>